<?xml version="1.0" encoding="UTF-8" standalone="no"?>
<!DOCTYPE svg PUBLIC "-//W3C//DTD SVG 1.1//EN" "http://www.w3.org/Graphics/SVG/1.1/DTD/svg11.dtd">
<svg version="1.1" 
  xmlns="http://www.w3.org/2000/svg" 
  xmlns:xlink="http://www.w3.org/1999/xlink" preserveAspectRatio="xMidYMid meet" viewBox="0 0 280 646" width="280" height="646">
  <defs>
    <path d="M9.5 9L20 9L30.5 10L40.5 13.5L50 18L61 22.5L70.5 27.5L79 33L88 38L97.5 43L106.5 48L115 53.5L124.5 58.5L133.5 64L142.5 69.5L150 76.5L157.5 83.5L166 89.5L170.5 93L181 104L189 111.5L195 120L199.5 129.5L200.5 139.5L198 149.5L195.5 139L195.5 129L192 119.5L186 110.5L178 104L166.5 96L158 88L150.5 82.5L143 76.5L138 70L130 63.5L121 59L111.5 54L102.5 49.5L93 45L84 40L75 35.5L65.5 31L56.5 26.5L47.5 22L37 19L26.5 16.5L16 14.5L6 15" id="eYaYvXeLl"></path>
    <path d="M165.34 124.46L175.84 128.46L183.84 134.96L190.84 142.46L197.84 150.46L203.34 159.46L207.84 168.96L210.34 178.96L213.34 188.96L216.34 199.46L219.34 209.46L219.84 219.46L217.84 209.46L212.34 199.46L209.34 188.96L205.84 179.46L201.84 169.96L197.34 160.96L191.84 152.46L186.84 143.46L178.34 136.46L170.34 130.46" id="c55xcJYDFO"></path>
    <path d="M222.66 245.46L224.16 235.46L219.16 226.46L210.66 220.46L201.16 216.96L191.16 215.96L181.66 219.46L165.16 237.46L183.66 222.96L191.66 219.46L204.16 221.46L213.66 225.96L221.66 234.46L220.16 247.46" id="b5VTr3plwH"></path>
    <path d="M220.66 246.96L213.16 239.96L204.16 234.46L194.16 231.96L184.16 231.96L174.66 235.96L164.66 238.46L174.66 237.46L184.66 234.96L194.66 234.46L204.16 237.96L212.16 244.96" id="fqeMSLOAp"></path>
    <path d="M223.66 273.96L228.16 264.46L231.16 254.46L228.16 243.46L228.16 253.46L223.16 262.96L221.16 272.96" id="d3wxxK0beU"></path>
    <path d="M220.66 267.96L223.16 277.96L233.66 281.46L223.66 279.96L215.66 273.96L205.66 271.46L195.66 273.46L185.16 276.46L176.16 281.46L169.16 288.96L178.66 292.46L188.66 294.96L178.16 295.46L168.16 294.96L164.66 285.46L173.66 279.46L182.66 273.96L191.66 269.46L201.66 266.96L211.66 264.46L221.66 263.96L220.66 274.46" id="d2BmMEh9OR"></path>
    <path d="M223.66 282.96L213.66 281.96L209.66 291.46L209.66 281.46L199.26 280.76L191.85 282.58L188.46 285.36L181.16 290.96L186.76 289.16L194.16 283.76L201.48 287.84L206.91 282.51L209.66 293.46L215.66 285.46L225.66 285.96" id="h4ZAWYu1d6"></path>
    <path d="M208.46 291.76L206.46 293.36L205.06 295.76L205.86 298.16L208.06 299.56L210.46 300.56L212.86 299.56L212.86 296.96L212.46 294.36L210.26 292.96L209.66 295.56L207.46 296.96L207.66 294.36L209.46 292.56" id="c4y2oOrvh2"></path>
    <path d="M234.71 300.4L259.84 332.87L264.64 339.14L270.91 350.47L272.84 363.27L271.38 368.27L264.04 376L249.91 389L251.38 395.4L253.71 400.07L255.38 405.07L257.04 410.74L253.71 405.74L251.04 401.4L249.38 396.4L248.93 394.59C248.93 394.59 248.93 394.59 248.93 394.59C246.92 391.99 247.1 388.31 249.35 385.91C249.67 385.58 250.45 384.74 251.71 383.4L255.71 379.74L259.38 376.07L262.71 371.74L265.71 367.4L268.38 362.74L268.71 357.4L266.71 352.74L265.04 347.74L263.84 343.87C262.26 341.8 261.27 340.51 260.87 340C260.87 340 259.41 337.96 259.41 337.96C257.9 335.71 254.11 330.08 248.04 321.07L235.84 306.94L233.11 303.07L227.31 297.07L224.64 288.74C224.64 288.74 224.64 288.74 224.64 288.74C224.78 288.29 225.37 288.18 225.66 288.56C226.86 290.14 229.88 294.09 234.71 300.4Z" id="h1KQKZ2kBH"></path>
    <path d="M246.11 418.25C250.25 417.9 252.84 417.68 253.87 417.6C254.59 417.54 255.11 418.26 254.82 418.92C253.69 421.48 251.01 427.58 249.9 430.11C249.45 431.14 248.55 431.9 247.47 432.19C244.02 433.1 235.4 435.37 221.61 439L231.41 430.82L234.63 428.12L242.22 421.54L247.45 416.08L237.11 423.75L213.03 442.92L210.36 450L215.61 443.25C233.4 439.2 244.52 436.66 248.97 435.65C250.69 435.26 252.12 434.05 252.79 432.42C253.93 429.63 256.22 424.04 257.35 421.3C258.1 419.47 258.22 417.44 257.7 415.53C257.61 415.21 258.21 417.39 258.13 417.12C257.63 415.31 255.84 414.16 253.99 414.47C253.37 414.58 251.83 414.84 249.36 415.25" id="b1tD4CJ3Du"></path>
    <path d="M245.45 396.87L246.65 399.07L248.25 401.07L249.65 403.27L251.05 405.47L252.45 408.07L252.65 410.67L250.65 412.47L248.25 413.27L246.25 414.87L247.25 412.27L249.65 411.07L250.65 408.67L249.05 406.67L247.45 404.67L246.05 402.27L245.05 399.87L244.85 397.27" id="aMf4BeY6f"></path>
    <path d="M245.84 375.73L247.76 374.07C248.43 373.83 248.84 373.67 249.01 373.61C249.94 373.27 250.97 373.37 251.81 373.89C252.04 374.03 252.6 374.38 253.51 374.95C253.28 373.89 253.13 373.23 253.07 372.96C252.88 372.1 252.24 371.41 251.4 371.15C251.02 371.03 251.67 371.23 251.4 371.15C250.19 370.78 248.88 370.89 247.75 371.45C247.45 371.6 248.47 371.09 248.22 371.22C246.93 371.86 245.79 372.77 244.87 373.89C244.57 374.25 244.46 374.39 244.01 374.94C243.76 375.24 243.97 375.7 244.36 375.71C244.56 375.71 245.05 375.72 245.84 375.73Z" id="esuyrYfFh"></path>
    <path d="M250.54 377.31C249.58 377.24 248.61 377.4 247.73 377.78C246.97 378.12 246.2 378.45 245.48 378.77C245.09 378.93 244.74 378.47 245.01 378.14C245.17 377.96 244.8 378.4 245.01 378.14C245.51 377.55 246.15 377.1 246.86 376.83C247.31 376.66 247.51 376.58 247.94 376.41C248.69 376.13 249.48 375.97 250.29 375.95C250.6 375.94 250.35 375.95 250.67 375.94C251.43 375.92 252.17 376.2 252.74 376.71C252.94 376.88 252.31 376.32 252.42 376.42C252.83 376.79 252.54 377.48 251.99 377.43C251.4 377.38 251.18 377.37 250.54 377.31Z" id="a2Cz8jf8sl"></path>
    <path d="M217.11 381.47C217.26 381.72 217.36 381.88 217.39 381.94C219.37 385.24 222.17 387.97 225.51 389.87C225.51 389.87 225.51 389.87 225.51 389.87L218.31 380.67L218.51 366.27C217.91 368.53 217.53 369.95 217.38 370.51C216.71 373.03 216.5 375.64 216.77 378.23C216.82 378.66 216.93 379.74 217.11 381.47Z" id="fGQNzrqIt"></path>
    <path d="M244.92 446C246.24 447.32 246.94 449.13 246.86 451C246.82 451.73 246.74 453.56 246.6 456.49C245.73 461.93 245.19 465.34 244.97 466.7C244.76 468.02 243.42 468.85 242.14 468.45C241.13 468.13 238.6 467.34 234.57 466.07L210.71 452.07L229.99 467.07C236.39 469.52 240.39 471.04 241.99 471.66C244.8 472.73 247.87 470.84 248.17 467.85C248.31 466.45 248.67 462.95 249.24 457.35L249.71 448.52C249.71 447.7 249.71 447.18 249.71 446.97C249.71 444.3 247.48 442.17 244.81 442.3C242.17 442.42 235.56 442.72 224.99 443.21C233.35 443.97 238.57 444.45 240.65 444.64C242.72 444.82 244.65 445.73 246.12 447.2C246.3 447.37 244.71 445.78 244.92 446Z" id="a1neXMFsIi"></path>
    <path d="M232.58 467.63L230.22 483.93L227.37 503C227.37 503 227.37 503 227.37 503C225.14 508.81 219.67 512.74 213.45 512.99C211.55 513.07 206.81 513.26 199.23 513.56L139.7 515.33L128.28 518.91C178.97 518.16 209.48 517.61 219.82 517.26C225.79 517.06 220.96 518.95 225.38 515.52C228.4 513.18 230.86 505.04 232.77 491.11C233.52 485.71 233.66 480.25 233.19 474.82C233.11 473.86 232.9 471.47 232.58 467.63Z" id="a8HdTHlPkC"></path>
    <path d="M142.68 531.58L141.35 536.58L139.01 541.58L137.01 546.25L135.68 552.25L133.35 557.91L131.68 562.91L129.68 568.25L128.01 573.91L126.35 578.91L124.01 585.25L121.68 590.25L120.35 595.58L118.01 601.58L116.35 607.58L114.35 613.91L112.68 618.91L111.68 623.91L110.68 630.58L110.01 635.91L109.01 641.58" id="d5O2Bvg0wa"></path>
  </defs>
  <g>
    <g>
      <g>
        <use xlink:href="#eYaYvXeLl" opacity="1" fill="#000000" fill-opacity="1"></use>
        <g>
          <use xlink:href="#eYaYvXeLl" opacity="1" fill-opacity="0" stroke="#000000" stroke-width="1" stroke-opacity="1"></use>
        </g>
      </g>
      <g>
        <use xlink:href="#c55xcJYDFO" opacity="1" fill="#000000" fill-opacity="1"></use>
        <g>
          <use xlink:href="#c55xcJYDFO" opacity="1" fill-opacity="0" stroke="#000000" stroke-width="1" stroke-opacity="1"></use>
        </g>
      </g>
      <g>
        <use xlink:href="#b5VTr3plwH" opacity="1" fill="#000000" fill-opacity="1"></use>
        <g>
          <use xlink:href="#b5VTr3plwH" opacity="1" fill-opacity="0" stroke="#000000" stroke-width="1" stroke-opacity="1"></use>
        </g>
      </g>
      <g>
        <use xlink:href="#fqeMSLOAp" opacity="1" fill="#000000" fill-opacity="1"></use>
        <g>
          <use xlink:href="#fqeMSLOAp" opacity="1" fill-opacity="0" stroke="#000000" stroke-width="1" stroke-opacity="1"></use>
        </g>
      </g>
      <g>
        <use xlink:href="#d3wxxK0beU" opacity="1" fill="#000000" fill-opacity="1"></use>
        <g>
          <use xlink:href="#d3wxxK0beU" opacity="1" fill-opacity="0" stroke="#000000" stroke-width="1" stroke-opacity="1"></use>
        </g>
      </g>
      <g>
        <use xlink:href="#d2BmMEh9OR" opacity="1" fill="#000000" fill-opacity="1"></use>
        <g>
          <use xlink:href="#d2BmMEh9OR" opacity="1" fill-opacity="0" stroke="#000000" stroke-width="1" stroke-opacity="1"></use>
        </g>
      </g>
      <g>
        <use xlink:href="#h4ZAWYu1d6" opacity="1" fill="#000000" fill-opacity="1"></use>
        <g>
          <use xlink:href="#h4ZAWYu1d6" opacity="1" fill-opacity="0" stroke="#000000" stroke-width="1" stroke-opacity="1"></use>
        </g>
      </g>
      <g>
        <use xlink:href="#c4y2oOrvh2" opacity="1" fill="#000000" fill-opacity="1"></use>
        <g>
          <use xlink:href="#c4y2oOrvh2" opacity="1" fill-opacity="0" stroke="#000000" stroke-width="1" stroke-opacity="1"></use>
        </g>
      </g>
      <g>
        <use xlink:href="#h1KQKZ2kBH" opacity="1" fill="#000000" fill-opacity="1"></use>
        <g>
          <use xlink:href="#h1KQKZ2kBH" opacity="1" fill-opacity="0" stroke="#000000" stroke-width="1" stroke-opacity="1"></use>
        </g>
      </g>
      <g>
        <use xlink:href="#b1tD4CJ3Du" opacity="1" fill="#000000" fill-opacity="1"></use>
        <g>
          <use xlink:href="#b1tD4CJ3Du" opacity="1" fill-opacity="0" stroke="#000000" stroke-width="1" stroke-opacity="1"></use>
        </g>
      </g>
      <g>
        <use xlink:href="#aMf4BeY6f" opacity="1" fill="#000000" fill-opacity="1"></use>
        <g>
          <use xlink:href="#aMf4BeY6f" opacity="1" fill-opacity="0" stroke="#000000" stroke-width="1" stroke-opacity="1"></use>
        </g>
      </g>
      <g>
        <use xlink:href="#esuyrYfFh" opacity="1" fill="#000000" fill-opacity="1"></use>
        <g>
          <use xlink:href="#esuyrYfFh" opacity="1" fill-opacity="0" stroke="#000000" stroke-width="1" stroke-opacity="1"></use>
        </g>
      </g>
      <g>
        <use xlink:href="#a2Cz8jf8sl" opacity="1" fill="#000000" fill-opacity="1"></use>
        <g>
          <use xlink:href="#a2Cz8jf8sl" opacity="1" fill-opacity="0" stroke="#000000" stroke-width="1" stroke-opacity="1"></use>
        </g>
      </g>
      <g>
        <use xlink:href="#fGQNzrqIt" opacity="1" fill="#000000" fill-opacity="1"></use>
        <g>
          <use xlink:href="#fGQNzrqIt" opacity="1" fill-opacity="0" stroke="#000000" stroke-width="1" stroke-opacity="1"></use>
        </g>
      </g>
      <g>
        <use xlink:href="#a1neXMFsIi" opacity="1" fill="#000000" fill-opacity="1"></use>
        <g>
          <use xlink:href="#a1neXMFsIi" opacity="1" fill-opacity="0" stroke="#000000" stroke-width="1" stroke-opacity="1"></use>
        </g>
      </g>
      <g>
        <use xlink:href="#a8HdTHlPkC" opacity="1" fill="#000000" fill-opacity="1"></use>
        <g>
          <use xlink:href="#a8HdTHlPkC" opacity="1" fill-opacity="0" stroke="#000000" stroke-width="1" stroke-opacity="1"></use>
        </g>
      </g>
      <g>
        <use xlink:href="#d5O2Bvg0wa" opacity="1" fill="#000000" fill-opacity="1"></use>
        <g>
          <use xlink:href="#d5O2Bvg0wa" opacity="1" fill-opacity="0" stroke="#000000" stroke-width="1" stroke-opacity="1"></use>
        </g>
      </g>
    </g>
  </g>
</svg>