<?xml version="1.0" encoding="UTF-8" standalone="no"?>
<!DOCTYPE svg PUBLIC "-//W3C//DTD SVG 1.1//EN" "http://www.w3.org/Graphics/SVG/1.1/DTD/svg11.dtd">
<svg version="1.1" 
  xmlns="http://www.w3.org/2000/svg" 
  xmlns:xlink="http://www.w3.org/1999/xlink" preserveAspectRatio="xMidYMid meet" viewBox="0 0 640 640" width="640" height="640">
  <defs>
    <path d="M502.21 1.93L491.71 1.93L481.21 2.93L471.21 6.43L461.71 10.93L450.71 15.43L441.21 20.43L432.71 25.93L423.71 30.93L414.21 35.93L405.21 40.93L396.71 46.43L387.21 51.43L378.21 56.93L369.21 62.43L361.71 69.43L354.21 76.43L345.71 82.43L341.21 85.93L330.71 96.93L322.71 104.43L316.71 112.93L312.21 122.43L311.21 132.43L313.71 142.43L316.21 131.93L316.21 121.93L319.71 112.43L325.71 103.43L333.71 96.93L345.21 88.93L353.71 80.93L361.21 75.43L368.71 69.43L373.71 62.93L381.71 56.43L390.71 51.93L400.21 46.93L409.21 42.43L418.71 37.93L427.71 32.93L436.71 28.43L446.21 23.93L455.21 19.43L464.21 14.93L474.71 11.93L485.21 9.43L495.71 7.43L505.71 7.93" id="b13DDNpoOT"></path>
    <path d="M346.37 117.39L335.87 121.39L327.87 127.89L320.87 135.39L313.87 143.39L308.37 152.39L303.87 161.89L301.37 171.89L298.37 181.89L295.37 192.39L292.37 202.39L291.87 212.39L293.87 202.39L299.37 192.39L302.37 181.89L305.87 172.39L309.87 162.89L314.37 153.89L319.87 145.39L324.87 136.39L333.37 129.39L341.37 123.39" id="dt2GFLbK"></path>
    <path d="M289.05 238.39L287.55 228.39L292.55 219.39L301.05 213.39L310.55 209.89L320.55 208.89L330.05 212.39L346.55 230.39L328.05 215.89L320.05 212.39L307.55 214.39L298.05 218.89L290.05 227.39L291.55 240.39" id="d1SG8GC2R8"></path>
    <path d="M291.05 239.89L298.55 232.89L307.55 227.39L317.55 224.89L327.55 224.89L337.05 228.89L347.05 231.39L337.05 230.39L327.05 227.89L317.05 227.39L307.55 230.89L299.55 237.89" id="e6QTHSxq4"></path>
    <path d="M288.05 266.89L283.55 257.39L280.55 247.39L283.55 236.39L283.55 246.39L288.55 255.89L290.55 265.89" id="aL5d55XXa"></path>
    <path d="M291.05 260.89L288.55 270.89L278.05 274.39L288.05 272.89L296.05 266.89L306.05 264.39L316.05 266.39L326.55 269.39L335.55 274.39L342.55 281.89L333.05 285.39L323.05 287.89L333.55 288.39L343.55 287.89L347.05 278.39L338.05 272.39L329.05 266.89L320.05 262.39L310.05 259.89L300.05 257.39L290.05 256.89L291.05 267.39" id="aBTQoQSbM"></path>
    <path d="M288.05 275.89L298.05 274.89L302.05 284.39L302.05 274.39L312.45 273.69L319.86 275.51L323.25 278.29L330.55 283.89L324.95 282.09L317.55 276.69L310.23 280.77L304.8 275.44L302.05 286.39L296.05 278.39L286.05 278.89" id="jsKQF4DBB"></path>
    <path d="M303.25 284.69L305.25 286.29L306.65 288.69L305.85 291.09L303.65 292.49L301.25 293.49L298.85 292.49L298.85 289.89L299.25 287.29L301.45 285.89L302.05 288.49L304.25 289.89L304.05 287.29L302.25 285.49" id="f7Y2sxh8c"></path>
    <path d="M277 293.33L251.87 325.8L247.07 332.07L240.8 343.4L238.87 356.2L240.33 361.2L247.67 368.93L261.8 381.93L260.33 388.33L258 393L256.33 398L254.67 403.67L258 398.67L260.67 394.33L262.33 389.33L262.78 387.52C262.78 387.52 262.78 387.52 262.78 387.52C264.79 384.92 264.61 381.24 262.36 378.84C262.04 378.51 261.26 377.67 260 376.33L256 372.67L252.33 369L249 364.67L246 360.33L243.33 355.67L243 350.33L245 345.67L246.67 340.67L247.87 336.8C249.45 334.73 250.44 333.44 250.84 332.93C250.84 332.93 252.3 330.89 252.3 330.89C253.82 328.64 257.6 323.01 263.67 314L275.87 299.87L278.6 296L284.4 290L287.07 281.67C287.07 281.67 287.07 281.67 287.07 281.67C286.93 281.22 286.34 281.11 286.05 281.49C284.85 283.07 281.83 287.02 277 293.33Z" id="aLKeDkvRm"></path>
    <path d="M265.6 411.18C261.46 410.83 258.88 410.61 257.84 410.53C257.13 410.47 256.61 411.19 256.9 411.85C258.02 414.41 260.7 420.51 261.82 423.04C262.27 424.07 263.16 424.83 264.24 425.12C267.69 426.03 276.31 428.3 290.1 431.93L280.3 423.75L277.08 421.05L269.49 414.47L264.27 409.01L274.6 416.68L298.68 435.85L301.35 442.93L296.1 436.18C278.31 432.13 267.19 429.59 262.74 428.58C261.02 428.19 259.59 426.98 258.92 425.35C257.78 422.56 255.49 416.97 254.36 414.23C253.61 412.4 253.49 410.37 254.02 408.46C254.1 408.14 253.5 410.32 253.58 410.05C254.08 408.24 255.87 407.09 257.72 407.4C258.34 407.51 259.88 407.77 262.35 408.18" id="aZFeo8wHb"></path>
    <path d="M266.26 389.8L265.06 392L263.46 394L262.06 396.2L260.66 398.4L259.26 401L259.06 403.6L261.06 405.4L263.46 406.2L265.46 407.8L264.46 405.2L262.06 404L261.06 401.6L262.66 399.6L264.26 397.6L265.66 395.2L266.66 392.8L266.86 390.2" id="a1UF6qAUyE"></path>
    <path d="M265.87 368.66L263.95 367C263.29 366.76 262.87 366.6 262.7 366.54C261.77 366.2 260.74 366.3 259.9 366.82C259.67 366.96 259.11 367.31 258.2 367.88C258.44 366.82 258.58 366.16 258.64 365.89C258.83 365.03 259.47 364.34 260.32 364.08C260.69 363.96 260.04 364.16 260.32 364.08C261.53 363.71 262.83 363.82 263.97 364.38C264.26 364.53 263.24 364.02 263.5 364.15C264.79 364.79 265.92 365.7 266.84 366.82C267.14 367.18 267.25 367.32 267.7 367.87C267.96 368.17 267.74 368.63 267.35 368.64C267.15 368.64 266.66 368.65 265.87 368.66Z" id="cs4rXd7vK"></path>
    <path d="M261.17 370.24C262.13 370.17 263.1 370.33 263.99 370.71C264.75 371.05 265.51 371.38 266.23 371.7C266.62 371.86 266.97 371.4 266.7 371.07C266.55 370.89 266.92 371.33 266.7 371.07C266.2 370.48 265.57 370.03 264.85 369.76C264.4 369.59 264.2 369.51 263.77 369.34C263.02 369.06 262.23 368.9 261.43 368.88C261.11 368.87 261.36 368.88 261.05 368.87C260.28 368.85 259.54 369.13 258.97 369.64C258.78 369.81 259.4 369.25 259.29 369.35C258.88 369.72 259.17 370.41 259.73 370.36C260.31 370.31 260.54 370.3 261.17 370.24Z" id="a285cxiPb5"></path>
    <path d="M294.6 374.4C294.45 374.65 294.36 374.81 294.32 374.87C292.34 378.17 289.54 380.9 286.2 382.8C286.2 382.8 286.2 382.8 286.2 382.8L293.4 373.6L293.2 359.2C293.8 361.46 294.18 362.88 294.33 363.44C295 365.96 295.21 368.57 294.94 371.16C294.89 371.59 294.78 372.67 294.6 374.4Z" id="a5ygDjBNl"></path>
    <path d="M266.79 438.93C265.47 440.25 264.77 442.06 264.85 443.93C264.89 444.66 264.97 446.49 265.11 449.42C265.98 454.86 266.53 458.27 266.74 459.63C266.96 460.95 268.3 461.78 269.58 461.38C270.59 461.06 273.11 460.27 277.15 459L301 445L281.72 460C275.32 462.45 271.32 463.97 269.72 464.59C266.91 465.66 263.85 463.77 263.54 460.78C263.4 459.38 263.04 455.88 262.47 450.28L262 441.45C262 440.63 262 440.11 262 439.9C262 437.23 264.23 435.1 266.9 435.23C269.54 435.35 276.15 435.65 286.72 436.14C278.37 436.9 273.15 437.38 271.06 437.57C268.99 437.75 267.06 438.66 265.59 440.13C265.42 440.3 267 438.71 266.79 438.93Z" id="b28aluvZAf"></path>
    <path d="" id="b27YgTEW7Q"></path>
    <path d="M279.13 460.56L281.5 476.86L284.34 495.93C284.34 495.93 284.34 495.93 284.34 495.93C286.57 501.74 292.04 505.67 298.26 505.92C300.16 506 304.9 506.19 312.48 506.49L372.01 508.26L383.43 511.84C332.74 511.09 302.23 510.54 291.89 510.19C285.92 509.99 290.76 511.88 286.33 508.45C283.32 506.11 280.85 497.97 278.94 484.04C278.2 478.64 278.06 473.18 278.52 467.75C278.6 466.79 278.81 464.4 279.13 460.56Z" id="b4GM33rao"></path>
    <path d="M369.03 524.51L370.37 529.51L372.7 534.51L374.7 539.18L376.03 545.18L378.37 550.84L380.03 555.84L382.03 561.18L383.7 566.84L385.37 571.84L387.7 578.18L390.03 583.18L391.37 588.51L393.7 594.51L395.37 600.51L397.37 606.84L399.03 611.84L400.03 616.84L401.03 623.51L401.7 628.84L402.7 634.51" id="aH2vztb52"></path>
  </defs>
  <g>
    <g>
      <g>
        <use xlink:href="#b13DDNpoOT" opacity="1" fill="#4146ef" fill-opacity="1"></use>
      </g>
      <g>
        <use xlink:href="#dt2GFLbK" opacity="1" fill="#4349ef" fill-opacity="1"></use>
      </g>
      <g>
        <use xlink:href="#d1SG8GC2R8" opacity="1" fill="#4349ef" fill-opacity="1"></use>
      </g>
      <g>
        <use xlink:href="#e6QTHSxq4" opacity="1" fill="#4349ef" fill-opacity="1"></use>
      </g>
      <g>
        <use xlink:href="#aL5d55XXa" opacity="1" fill="#4349ef" fill-opacity="1"></use>
      </g>
      <g>
        <use xlink:href="#aBTQoQSbM" opacity="1" fill="#4349ef" fill-opacity="1"></use>
      </g>
      <g>
        <use xlink:href="#jsKQF4DBB" opacity="1" fill="#4349ef" fill-opacity="1"></use>
      </g>
      <g>
        <use xlink:href="#f7Y2sxh8c" opacity="1" fill="#4349ef" fill-opacity="1"></use>
      </g>
      <g>
        <use xlink:href="#aLKeDkvRm" opacity="1" fill="#4349ef" fill-opacity="1"></use>
      </g>
      <g>
        <use xlink:href="#aZFeo8wHb" opacity="1" fill="#4349ef" fill-opacity="1"></use>
      </g>
      <g>
        <use xlink:href="#a1UF6qAUyE" opacity="1" fill="#666bf5" fill-opacity="1"></use>
      </g>
      <g>
        <use xlink:href="#cs4rXd7vK" opacity="1" fill="#4349f6" fill-opacity="1"></use>
      </g>
      <g>
        <use xlink:href="#a285cxiPb5" opacity="1" fill="#4349f6" fill-opacity="1"></use>
      </g>
      <g>
        <use xlink:href="#a5ygDjBNl" opacity="1" fill="#7075f5" fill-opacity="1"></use>
      </g>
      <g>
        <use xlink:href="#b28aluvZAf" opacity="1" fill="#4046f8" fill-opacity="1"></use>
      </g>
      <g>
        <g>
          <use xlink:href="#b27YgTEW7Q" opacity="1" fill-opacity="0" stroke="#5f64ed" stroke-width="1" stroke-opacity="1"></use>
        </g>
      </g>
      <g>
        <use xlink:href="#b4GM33rao" opacity="1" fill="#4046f8" fill-opacity="1"></use>
      </g>
      <g>
        <use xlink:href="#aH2vztb52" opacity="1" fill="#4046f8" fill-opacity="1"></use>
        <g>
          <use xlink:href="#aH2vztb52" opacity="1" fill-opacity="0" stroke="#4046f8" stroke-width="1" stroke-opacity="1"></use>
        </g>
      </g>
    </g>
  </g>
</svg>