<svg width="38.693" height="41.693" xmlns="http://www.w3.org/2000/svg">

 <g>
  <title>background</title>
  <rect fill="none" id="canvas_background" height="43.693" width="40.693" y="-1" x="-1"/>
 </g>
 <g>
  <title>Layer 1</title>
  <path id="svg_6" d="m2.187686,1.276795l3.168,35.532l14.221,3.947l14.232,-3.945l3.174,-35.534l-34.795,0zm27.922,11.62l-10.525,0l-6.152,0l0.398,4.463l5.754,0l10.129,0l-1.195,13.383l-8.934,2.475l-0.006,0.002l-8.928,-2.477l-0.623,-7l4.374,0l0.324,3.631l4.854,1.312l0.006,-0.002l0,0l4.859,-1.312l0.506,-5.652l-5.365,0l0,0l-9.739,0l-1.177,-13.179l10.915,0l10.914,0l-0.389,4.356z"/>
 </g>
</svg>