<?xml version="1.0" standalone="no"?>
<!DOCTYPE svg PUBLIC "-//W3C//DTD SVG 20010904//EN"
 "http://www.w3.org/TR/2001/REC-SVG-20010904/DTD/svg10.dtd">
<svg version="1.0" xmlns="http://www.w3.org/2000/svg"
 width="51.2pt" height="29.44pt" viewBox="0 0 1280.000000 763.000000"
 preserveAspectRatio="xMidYMid meet">
<metadata>
Created by potrace 1.15, written by Peter Selinger 2001-2017
</metadata>
<g transform="translate(0.000000,763.000000) scale(0.100000,-0.100000)"
fill="#e91e63" stroke="none">
<path d="M7744 6980 c-151 -39 -360 -139 -619 -296 -88 -53 -171 -102 -185
-109 -32 -17 -392 -97 -580 -130 -80 -13 -266 -41 -415 -60 -483 -63 -839
-127 -1035 -186 -419 -124 -856 -459 -1046 -801 -147 -264 -229 -651 -195
-913 32 -246 119 -430 283 -594 96 -97 190 -167 313 -233 81 -44 103 -61 118
-91 17 -34 17 -38 1 -69 -52 -102 -791 -1399 -845 -1483 -521 -816 -1073
-1210 -1798 -1284 -420 -43 -794 52 -1017 261 -66 62 -116 126 -133 170 -9 24
-8 24 43 17 28 -3 72 -12 99 -19 100 -27 227 7 285 75 77 91 93 208 52 370 -7
28 -17 67 -22 88 -14 59 -70 114 -136 133 -121 35 -238 0 -329 -100 -99 -108
-127 -204 -120 -410 6 -161 23 -241 73 -336 119 -227 369 -385 709 -446 137
-25 551 -25 740 0 315 41 580 123 874 270 336 169 628 374 880 620 324 317
574 710 1003 1575 113 227 194 378 216 403 52 58 106 84 215 106 54 11 101 22
104 26 4 3 -21 6 -55 6 -70 0 -110 12 -119 37 -4 10 -11 21 -16 25 -6 3 21 9
59 13 348 33 638 162 934 415 47 40 70 57 52 38 -44 -47 -100 -143 -90 -154
18 -18 165 96 249 193 68 78 142 218 165 312 16 64 14 129 -5 140 -6 4 -6 38
0 93 10 90 3 128 -25 128 -23 0 -34 -23 -81 -168 -78 -244 -169 -399 -319
-545 -238 -233 -530 -365 -849 -384 l-98 -6 10 25 c19 51 321 647 401 793 289
527 524 876 815 1211 195 224 595 634 675 691 10 7 62 19 117 27 147 22 354
92 578 195 161 75 225 129 225 192 0 31 -28 71 -43 63 -7 -4 5 11 26 32 81 86
22 117 -139 74z m-689 -439 c-16 -10 -39 -28 -50 -41 -26 -28 -67 -50 -98 -50
-12 0 -28 -3 -33 -7 -6 -5 15 15 45 44 36 33 69 54 96 61 63 15 72 13 40 -7z
m-216 -45 c-2 -2 -58 -40 -124 -84 -135 -90 -368 -281 -558 -459 -521 -487
-1057 -1196 -1527 -2022 -52 -89 -99 -165 -106 -168 -20 -7 -177 61 -260 112
-139 87 -248 208 -299 334 -23 56 -24 69 -21 218 2 123 8 175 24 236 69 254
197 462 422 688 274 274 564 458 935 591 61 22 227 75 370 118 385 116 590
191 586 215 -1 6 -68 10 -178 10 l-176 0 194 46 c331 80 704 167 713 168 5 1
7 -1 5 -3z m-2441 -2767 l87 -34 -44 -3 c-54 -4 -113 25 -218 105 -40 31 -73
57 -73 58 0 2 36 -18 80 -45 45 -26 120 -63 168 -81z m-3733 -2789 c21 -22 37
-40 34 -40 -3 0 -23 18 -44 40 -21 22 -37 40 -34 40 3 0 23 -18 44 -40z m240
-161 c117 -56 240 -94 380 -115 129 -20 520 -14 674 11 57 9 105 14 107 12 3
-2 -33 -12 -78 -22 -46 -9 -112 -24 -148 -32 -36 -8 -146 -17 -245 -20 -335
-10 -544 45 -796 213 -37 24 -73 52 -80 61 -8 9 9 0 36 -21 28 -21 95 -60 150
-87z m1202 -85 c-3 -3 -12 -4 -19 -1 -8 3 -5 6 6 6 11 1 17 -2 13 -5z"/>
<path d="M10827 5726 c-122 -44 -239 -178 -253 -292 -4 -27 -10 -53 -14 -59
-18 -24 -21 -96 -6 -149 48 -165 258 -179 419 -27 30 28 67 74 83 103 25 46
29 63 28 133 0 100 -24 217 -51 253 -36 48 -128 65 -206 38z"/>
<path d="M10196 4823 c-21 -38 -158 -275 -304 -528 -147 -253 -425 -741 -619
-1085 l-352 -625 -258 -115 c-671 -300 -872 -412 -1243 -690 -348 -262 -547
-500 -621 -740 -18 -58 -23 -99 -24 -181 0 -102 1 -109 35 -175 27 -53 46 -76
83 -101 63 -42 103 -53 212 -60 105 -6 202 7 316 43 118 37 116 37 93 22 -11
-7 -36 -25 -55 -40 -19 -14 -74 -47 -124 -73 l-90 -46 100 5 c129 6 222 33
370 106 220 108 426 262 661 495 342 340 609 708 998 1378 33 57 89 133 133
180 109 118 132 152 139 209 l7 50 136 90 c248 166 444 321 609 482 157 152
440 475 520 594 44 64 52 92 27 92 -20 0 -35 -17 -128 -139 -261 -342 -523
-613 -782 -807 -100 -76 -242 -171 -318 -214 l-59 -33 52 104 c82 163 389 696
743 1289 94 156 176 305 184 330 15 48 10 85 -14 112 -13 14 -13 20 3 50 9 18
26 46 37 61 l20 29 -79 -9 c-98 -10 -253 -10 -319 0 l-50 7 -39 -67z m-1316
-2327 c0 -7 -117 -94 -161 -120 -26 -14 -91 -42 -145 -60 -55 -18 -132 -50
-171 -70 -40 -20 -73 -34 -73 -32 0 4 324 177 485 259 48 25 65 31 65 23z
m-191 -280 c13 -15 -66 -152 -278 -481 -277 -429 -434 -639 -615 -821 -191
-192 -350 -288 -533 -324 -90 -18 -228 -9 -279 18 -111 57 -170 174 -145 292
5 25 9 36 10 26 1 -12 22 12 57 65 127 189 307 373 533 542 160 121 210 151
606 372 165 92 345 193 400 225 154 88 178 100 206 100 15 0 32 -6 38 -14z"/>
<path d="M6823 591 c11 -86 101 -161 192 -161 l50 0 -42 28 c-23 15 -59 43
-80 63 -21 19 -58 53 -82 74 l-44 40 6 -44z"/>
</g>
</svg>
